<svg xmlns="http://www.w3.org/2000/svg" xmlns:xlink="http://www.w3.org/1999/xlink" width="1080" zoomAndPan="magnify" viewBox="0 0 810 809.999993" height="1080" preserveAspectRatio="xMidYMid meet" version="1.0"><defs><clipPath id="4ae4fa177a"><path d="M 81 596 L 733.5 596 L 733.5 810 L 81 810 Z M 81 596 " clip-rule="nonzero"/></clipPath></defs><path fill="#bdc3c7" d="M 467.632812 613.949219 C 609.296875 622.09375 716.089844 658.5 716.089844 702.164062 C 716.089844 751.792969 577.859375 792.070312 407.25 792.070312 C 236.691406 792.070312 98.410156 751.792969 98.410156 702.164062 C 98.410156 659.007812 202.742188 622.984375 341.914062 614.226562 C 367.226562 654.523438 389.664062 690.441406 404.511719 717.199219 C 419.863281 689.5 442.40625 653.6875 467.632812 613.949219 Z M 467.632812 613.949219 " fill-opacity="1" fill-rule="nonzero"/><path fill="#e74c3c" d="M 404.511719 17.753906 C 538.167969 17.753906 646.527344 126.101562 646.527344 259.777344 C 646.527344 335.222656 544.554688 492.816406 467.632812 613.949219 C 442.40625 653.6875 419.863281 689.5 404.511719 717.203125 C 389.664062 690.441406 367.226562 654.523438 341.914062 614.226562 C 265.390625 492.484375 162.457031 330.636719 162.457031 259.777344 C 162.457031 126.101562 270.816406 17.753906 404.511719 17.753906 Z M 512.644531 250.652344 C 512.644531 191.0625 464.074219 142.480469 404.511719 142.480469 C 344.914062 142.480469 296.34375 191.0625 296.34375 250.652344 C 296.34375 310.207031 344.914062 358.773438 404.511719 358.773438 C 464.074219 358.773438 512.644531 310.207031 512.644531 250.652344 Z M 512.644531 250.652344 " fill-opacity="1" fill-rule="nonzero"/><g clip-path="url(#4ae4fa177a)"><path fill="#000000" d="M 407.25 809.515625 C 323.167969 809.515625 243.878906 799.914062 183.992188 782.476562 C 116.589844 762.851562 80.964844 735.078125 80.964844 702.164062 C 80.964844 636.472656 220.945312 604.359375 340.816406 596.816406 C 350.410156 596.195312 358.722656 603.515625 359.324219 613.132812 C 359.929688 622.746094 352.625 631.03125 343.007812 631.636719 C 276.640625 635.8125 216.558594 646.5 173.828125 661.726562 C 131.042969 676.976562 115.859375 693.039062 115.859375 702.164062 C 115.859375 711.128906 132.261719 731.078125 193.75 748.980469 C 250.550781 765.519531 326.375 774.628906 407.25 774.628906 C 488.144531 774.628906 563.972656 765.519531 620.769531 748.980469 C 682.242188 731.078125 698.640625 711.128906 698.640625 702.164062 C 698.640625 678.679688 616.023438 639.953125 466.632812 631.363281 C 457.011719 630.808594 449.660156 622.5625 450.214844 612.945312 C 450.769531 603.328125 458.992188 595.949219 468.636719 596.53125 C 590.835938 603.558594 733.535156 635.441406 733.535156 702.164062 C 733.535156 735.082031 697.917969 762.851562 630.527344 782.476562 C 570.648438 799.914062 491.355469 809.515625 407.25 809.515625 Z M 407.25 809.515625 " fill-opacity="1" fill-rule="nonzero"/></g><path fill="#000000" d="M 404.511719 734.644531 C 398.171875 734.644531 392.332031 731.207031 389.253906 725.664062 C 374.835938 699.679688 352.589844 664.023438 327.136719 623.507812 L 327.140625 623.507812 L 321.234375 614.117188 C 242.722656 489.253906 145.011719 333.855469 145.011719 259.777344 C 145.011719 116.703125 261.421875 0.308594 404.511719 0.308594 C 547.578125 0.308594 663.976562 116.703125 663.976562 259.777344 C 663.976562 337.550781 572 482.257812 490.851562 609.933594 L 482.359375 623.296875 C 457.109375 663.074219 434.96875 698.230469 419.769531 725.65625 C 416.699219 731.203125 410.859375 734.640625 404.515625 734.644531 C 404.515625 734.644531 404.511719 734.644531 404.511719 734.644531 Z M 404.511719 35.199219 C 280.660156 35.199219 179.90625 135.941406 179.90625 259.777344 C 179.90625 323.800781 278.664062 480.867188 350.777344 595.550781 L 356.683594 604.945312 C 356.683594 604.945312 356.683594 604.949219 356.683594 604.949219 C 375.289062 634.558594 391.410156 660.347656 404.511719 682.335938 C 418.199219 659.40625 434.761719 633.171875 452.902344 604.601562 L 461.402344 591.222656 C 532.167969 479.882812 629.082031 327.402344 629.082031 259.777344 C 629.082031 135.941406 528.339844 35.199219 404.511719 35.199219 Z M 404.511719 35.199219 " fill-opacity="1" fill-rule="nonzero"/><path fill="#000000" d="M 404.511719 376.21875 C 335.246094 376.21875 278.894531 319.890625 278.894531 250.652344 C 278.894531 181.386719 335.246094 125.035156 404.511719 125.035156 C 473.757812 125.035156 530.089844 181.386719 530.089844 250.652344 C 530.089844 319.890625 473.757812 376.21875 404.511719 376.21875 Z M 404.511719 159.925781 C 354.488281 159.925781 313.789062 200.625 313.789062 250.652344 C 313.789062 300.652344 354.488281 341.328125 404.511719 341.328125 C 454.515625 341.328125 495.199219 300.652344 495.199219 250.652344 C 495.199219 200.625 454.515625 159.925781 404.511719 159.925781 Z M 404.511719 159.925781 " fill-opacity="1" fill-rule="nonzero"/></svg>